<?xml version="1.0" encoding="UTF-8"?>
<!DOCTYPE svg PUBLIC "-//W3C//DTD SVG 1.1//EN" "http://www.w3.org/Graphics/SVG/1.1/DTD/svg11.dtd">
<!-- Creator: CorelDRAW 2019 (64-Bit) -->
<svg xmlns="http://www.w3.org/2000/svg" xml:space="preserve" width="126.666mm" height="79.963mm" version="1.1" style="shape-rendering:geometricPrecision; text-rendering:geometricPrecision; image-rendering:optimizeQuality; fill-rule:evenodd; clip-rule:evenodd"
viewBox="0 0 10572.18 6674.09"
 xmlns:xlink="http://www.w3.org/1999/xlink"
 xmlns:xodm="http://www.corel.com/coreldraw/odm/2003">
 <defs>
  <style type="text/css">
   <![CDATA[
    .str1 {stroke:white;stroke-width:6.36;stroke-miterlimit:22.9256}
    .str0 {stroke:white;stroke-width:88.33;stroke-miterlimit:22.9256}
    .str2 {stroke:white;stroke-width:88.33;stroke-miterlimit:22.9256}
    .str3 {stroke:white;stroke-width:88.33;stroke-miterlimit:22.9256}
    .fil0 {fill:none}
    .fil2 {fill:none;fill-rule:nonzero}
    .fil3 {fill:#2B244C}
    .fil6 {fill:#2B244C}
    .fil1 {fill:#4D2734}
    .fil4 {fill:#FDFDFD}
    .fil7 {fill:black;fill-rule:nonzero}
    .fil5 {fill:white;fill-rule:nonzero}
   ]]>
  </style>
 </defs>
 <g id="Layer_x0020_1">
  <metadata id="CorelCorpID_0Corel-Layer"/>
  <g id="_2453932941936">
   <g>
    <g>
     <path class="fil0 str0" d="M2142.3 4100.27c382.1,-195.77 602.56,-363.91 1035.46,-546.65 0,0 112.35,-75.49 112.35,-75.49l2480.19 -1424.52 -1489.78 -1672.26 611.72 1610.33c-511.85,282.58 -1185.99,876.78 -1677.04,1232.91 -302.4,219.25 -849.88,734.25 -1072.91,875.69z"/>
     <path id="1" class="fil1" d="M2142.3 4100.27c382.1,-195.77 602.56,-363.91 1035.46,-546.65 0,0 112.35,-75.49 112.35,-75.49l2480.19 -1424.52 -1489.78 -1672.26 611.72 1610.33c-511.85,282.58 -1185.99,876.78 -1677.04,1232.91 -302.4,219.25 -849.88,734.25 -1072.91,875.69z"/>
    </g>
    <g>
     <path class="fil2 str1" d="M5996.72 2104.09c70.74,226.46 1260.9,1550.33 1464.81,1672.26l-607.56 -1523.23 2900.49 -2214.2 -3757.74 2065.17z"/>
     <path id="1" class="fil1" d="M5996.72 2104.09c70.74,226.46 1260.9,1550.33 1464.81,1672.26l-607.56 -1523.23 2900.49 -2214.2 -3757.74 2065.17z"/>
    </g>
   </g>
   <g>
    <g>
     <path class="fil2 str1" d="M4864.82 2924.74c353.71,-60 620.04,-261.29 957.11,-282.59l711.6 704.53 -640.86 -1120.66c-258.01,54.19 -878.05,495.49 -1027.86,698.72z"/>
     <path id="1" class="fil3" d="M4864.82 2924.74c353.71,-60 620.04,-261.29 957.11,-282.59l711.6 704.53 -640.86 -1120.66c-258.01,54.19 -878.05,495.49 -1027.86,698.72z"/>
    </g>
    <g>
     <path class="fil2 str1" d="M5934.3 2016.99c149.81,-48.38 936.32,-588.39 1002.89,-708.39l-1002.89 329.03 -657.5 -706.45c41.62,228.38 482.73,934.84 657.5,1085.81z"/>
     <path id="1" class="fil3" d="M5934.3 2016.99c149.81,-48.38 936.32,-588.39 1002.89,-708.39l-1002.89 329.03 -657.5 -706.45c41.62,228.38 482.73,934.84 657.5,1085.81z"/>
    </g>
   </g>
   <g>
    <path class="fil2 str1" d="M9629.62 4676.35c178.94,-19.36 262.16,-79.35 228.88,-270.97 -228.88,-67.74 -224.72,50.32 -228.88,270.97z"/>
    <path id="1" class="fil4" d="M9629.62 4676.35c178.94,-19.36 262.16,-79.35 228.88,-270.97 -228.88,-67.74 -224.72,50.32 -228.88,270.97z"/>
   </g>
   <g>
    <g>
     <path class="fil0 str0" d="M2688.41 4204.09c16.65,216.77 -33.29,255.49 -87.39,476.13l337.07 -30.97 183.1 -447.1 341.24 1.94 -99.87 481.94 291.29 -19.36c203.91,-253.55 183.1,-737.43 432.79,-973.56l237.2 11.62c49.94,259.35 -170.62,648.39 -233.04,932.9l191.43 54.19c116.53,36.77 33.29,-3.86 133.17,58.07 -233.04,193.55 -1285.87,48.38 -1622.95,83.23 -174.78,17.42 -786.5,29.03 -932.15,11.61 -291.3,-34.84 -491.05,29.03 -774.03,-27.1 -241.35,-164.52 -87.39,-261.29 -341.23,-414.19l-153.98 418.07 -366.2 15.48c45.77,-214.84 133.17,-435.49 208.07,-650.32 95.72,-282.58 104.04,-352.25 424.46,-317.42 45.78,224.51 0,149.03 -54.09,373.55 258.01,-56.13 507.69,-123.87 428.62,-425.8 -307.94,-129.68 -774.02,-30.97 -1156.87,-75.49l141.49 -222.58c253.84,-40.65 1148.54,-58.07 1356.62,79.36 449.42,292.26 -183.1,611.61 -391.17,762.58l203.9 313.54 299.62 5.81c21.55,-350.81 100.37,-359.17 317.68,-515.8 73.17,-22.51 544.95,21.98 685.21,39.66zm-507.69 460.65c104.04,-118.07 120.68,-183.87 58.27,-298.07 -95.72,32.9 -87.4,-77.41 -133.17,104.52 -79.07,323.23 49.94,160.64 74.9,193.55z"/>
     <path id="1" class="fil3" d="M2688.41 4204.09c16.65,216.77 -33.29,255.49 -87.39,476.13l337.07 -30.97 183.1 -447.1 341.24 1.94 -99.87 481.94 291.29 -19.36c203.91,-253.55 183.1,-737.43 432.79,-973.56l237.2 11.62c49.94,259.35 -170.62,648.39 -233.04,932.9l191.43 54.19c116.53,36.77 33.29,-3.86 133.17,58.07 -233.04,193.55 -1285.87,48.38 -1622.95,83.23 -174.78,17.42 -786.5,29.03 -932.15,11.61 -291.3,-34.84 -491.05,29.03 -774.03,-27.1 -241.35,-164.52 -87.39,-261.29 -341.23,-414.19l-153.98 418.07 -366.2 15.48c45.77,-214.84 133.17,-435.49 208.07,-650.32 95.72,-282.58 104.04,-352.25 424.46,-317.42 45.78,224.51 0,149.03 -54.09,373.55 258.01,-56.13 507.69,-123.87 428.62,-425.8 -307.94,-129.68 -774.02,-30.97 -1156.87,-75.49l141.49 -222.58c253.84,-40.65 1148.54,-58.07 1356.62,79.36 449.42,292.26 -183.1,611.61 -391.17,762.58l203.9 313.54 299.62 5.81c21.55,-350.81 100.37,-359.17 317.68,-515.8 73.17,-22.51 544.95,21.98 685.21,39.66zm-507.69 460.65c104.04,-118.07 120.68,-183.87 58.27,-298.07 -95.72,32.9 -87.4,-77.41 -133.17,104.52 -79.07,323.23 49.94,160.64 74.9,193.55z"/>
    </g>
    <g>
     <path class="fil0 str0" d="M8439.46 4674.41c-91.54,-160.64 -66.58,-280.64 137.33,-292.26 4.16,174.2 0,185.81 -137.33,292.26zm1190.16 1.94c4.16,-220.65 0,-338.71 228.88,-270.97 33.29,191.62 -49.94,251.61 -228.88,270.97zm-2380.32 19.36c-4.16,-5.81 -141.49,65.81 -49.94,-203.23 45.77,-131.61 74.91,-104.51 191.43,-120 8.32,172.25 4.16,228.38 -141.49,323.23zm-2001.63 -973.55c295.46,149.03 844.76,-67.74 1140.23,120 12.48,319.36 -133.17,329.03 -420.3,406.46l79.07 -373.55c-407.82,-36.77 -362.04,17.42 -470.24,342.59 -74.9,220.64 -166.45,371.61 -178.94,615.49l328.75 5.8 199.75 -464.51 266.33 466.45c345.4,42.58 628.37,-13.55 998.74,21.29 420.3,40.65 590.91,-81.29 532.65,-485.81l291.3 0c-37.45,259.35 -120.68,468.39 241.36,485.81 378.69,15.48 2113.99,13.55 2255.47,-77.42 -58.26,-193.55 -99.87,-13.55 -312.11,-150.96l312.11 -913.55c-578.44,-40.65 -324.59,38.71 -561.78,445.16 -149.81,48.39 -432.79,36.77 -578.44,160.65 -320.43,272.9 79.07,356.13 -445.28,360l91.55 -476.13c-2600.87,-63.88 -1855.98,-11.61 -2288.77,476.13 -299.62,-5.81 -299.62,-40.65 -366.2,-325.16 99.87,-96.78 1015.38,-592.27 216.39,-822.59 -195.58,-54.19 -549.3,-36.77 -761.53,-40.65 -312.11,-3.87 -491.05,-79.35 -570.11,224.52z"/>
     <path id="1" class="fil3" d="M8439.46 4674.41c-91.54,-160.64 -66.58,-280.64 137.33,-292.26 4.16,174.2 0,185.81 -137.33,292.26zm1190.16 1.94c4.16,-220.65 0,-338.71 228.88,-270.97 33.29,191.62 -49.94,251.61 -228.88,270.97zm-2380.32 19.36c-4.16,-5.81 -141.49,65.81 -49.94,-203.23 45.77,-131.61 74.91,-104.51 191.43,-120 8.32,172.25 4.16,228.38 -141.49,323.23zm-2001.63 -973.55c295.46,149.03 844.76,-67.74 1140.23,120 12.48,319.36 -133.17,329.03 -420.3,406.46l79.07 -373.55c-407.82,-36.77 -362.04,17.42 -470.24,342.59 -74.9,220.64 -166.45,371.61 -178.94,615.49l328.75 5.8 199.75 -464.51 266.33 466.45c345.4,42.58 628.37,-13.55 998.74,21.29 420.3,40.65 590.91,-81.29 532.65,-485.81l291.3 0c-37.45,259.35 -120.68,468.39 241.36,485.81 378.69,15.48 2113.99,13.55 2255.47,-77.42 -58.26,-193.55 -99.87,-13.55 -312.11,-150.96l312.11 -913.55c-578.44,-40.65 -324.59,38.71 -561.78,445.16 -149.81,48.39 -432.79,36.77 -578.44,160.65 -320.43,272.9 79.07,356.13 -445.28,360l91.55 -476.13c-2600.87,-63.88 -1855.98,-11.61 -2288.77,476.13 -299.62,-5.81 -299.62,-40.65 -366.2,-325.16 99.87,-96.78 1015.38,-592.27 216.39,-822.59 -195.58,-54.19 -549.3,-36.77 -761.53,-40.65 -312.11,-3.87 -491.05,-79.35 -570.11,224.52z"/>
    </g>
    <g>
     <path class="fil0 str0" d="M7249.3 4695.71c145.65,-94.84 149.81,-150.97 141.49,-323.23 -116.52,15.48 -145.65,-11.61 -191.43,120 -91.55,269.04 45.77,197.42 49.94,203.23z"/>
     <path id="1" class="fil4" d="M7249.3 4695.71c145.65,-94.84 149.81,-150.97 141.49,-323.23 -116.52,15.48 -145.65,-11.61 -191.43,120 -91.55,269.04 45.77,197.42 49.94,203.23z"/>
    </g>
    <g>
     <path class="fil0 str0" d="M8439.46 4674.41c137.33,-106.45 141.49,-118.06 137.33,-292.26 -203.91,11.62 -228.88,131.62 -137.33,292.26z"/>
     <path id="1" class="fil4" d="M8439.46 4674.41c137.33,-106.45 141.49,-118.06 137.33,-292.26 -203.91,11.62 -228.88,131.62 -137.33,292.26z"/>
    </g>
   </g>
   <g>
    <path class="fil5" d="M3609.91 3890.83l-88.32 0 0 0 -0.26 -9.17 -0.77 -9.03 -1.24 -8.89 -1.74 -8.74 -2.2 -8.61 -2.65 -8.44 -3.11 -8.3 -3.55 -8.14 -3.98 -7.94 -4.42 -7.79 -4.82 -7.56 -5.23 -7.36 -5.64 -7.17 -6 -6.9 -6.39 -6.65 -6.76 -6.4 -7.1 -6.12 -7.44 -5.82 -7.78 -5.52 -8.09 -5.2 -8.38 -4.85 -8.68 -4.51 -8.95 -4.13 -9.21 -3.76 -9.46 -3.36 -9.69 -2.96 -9.9 -2.54 -10.13 -2.11 -10.31 -1.66 -10.52 -1.21 -10.68 -0.73 -10.84 -0.25 0 -87.94 14.9 0.33 14.71 1.02 14.52 1.66 14.31 2.31 14.07 2.93 13.82 3.54 13.55 4.15 13.25 4.72 12.95 5.28 12.62 5.83 12.27 6.38 11.9 6.89 11.53 7.4 11.12 7.89 10.71 8.37 10.26 8.84 9.8 9.27 9.34 9.74 8.84 10.16 8.3 10.54 7.79 10.95 7.22 11.35 6.64 11.69 6.03 12.06 5.4 12.38 4.75 12.68 4.09 13 3.38 13.24 2.67 13.5 1.93 13.71 1.17 13.91 0.39 14.06 0 0zm-294.22 269.78l0 -87.94 0 0 10.84 -0.25 10.68 -0.73 10.52 -1.21 10.31 -1.66 10.13 -2.11 9.9 -2.54 9.69 -2.96 9.46 -3.36 9.21 -3.76 8.95 -4.13 8.66 -4.51 8.4 -4.86 8.1 -5.2 7.77 -5.51 7.44 -5.82 7.09 -6.11 6.76 -6.41 6.39 -6.66 6.01 -6.91 5.63 -7.15 5.23 -7.36 4.82 -7.57 4.42 -7.79 3.98 -7.94 3.55 -8.14 3.11 -8.3 2.65 -8.45 2.2 -8.6 1.74 -8.75 1.24 -8.89 0.77 -9.03 0.26 -9.17 88.32 0 -0.39 14.06 -1.17 13.91 -1.93 13.71 -2.67 13.5 -3.38 13.24 -4.09 12.99 -4.75 12.68 -5.4 12.38 -6.03 12.06 -6.64 11.69 -7.22 11.34 -7.79 10.97 -8.3 10.54 -8.83 10.15 -9.33 9.73 -9.8 9.28 -10.27 8.85 -10.71 8.37 -11.13 7.9 -11.52 7.39 -11.89 6.89 -12.29 6.38 -12.62 5.83 -12.95 5.28 -13.25 4.72 -13.55 4.15 -13.82 3.54 -14.07 2.93 -14.31 2.31 -14.52 1.66 -14.71 1.02 -14.9 0.33 0 0zm-294.21 -269.78l88.32 0 0 0 0.26 9.17 0.77 9.03 1.24 8.89 1.74 8.75 2.2 8.6 2.65 8.45 3.11 8.3 3.55 8.14 3.98 7.94 4.42 7.79 4.82 7.58 5.22 7.35 5.63 7.14 6.02 6.93 6.39 6.66 6.76 6.41 7.09 6.11 7.44 5.82 7.77 5.51 8.1 5.2 8.4 4.86 8.67 4.51 8.93 4.13 9.21 3.76 9.46 3.36 9.68 2.96 9.91 2.54 10.12 2.11 10.32 1.66 10.51 1.21 10.68 0.73 10.84 0.25 0 87.94 -14.9 -0.33 -14.71 -1.02 -14.51 -1.66 -14.32 -2.31 -14.06 -2.93 -13.83 -3.54 -13.55 -4.15 -13.24 -4.72 -12.95 -5.28 -12.62 -5.83 -12.28 -6.38 -11.89 -6.89 -11.52 -7.39 -11.13 -7.9 -10.71 -8.37 -10.27 -8.85 -9.8 -9.28 -9.33 -9.73 -8.82 -10.13 -8.32 -10.56 -7.79 -10.98 -7.21 -11.33 -6.64 -11.69 -6.03 -12.06 -5.4 -12.38 -4.75 -12.68 -4.09 -12.99 -3.38 -13.24 -2.67 -13.5 -1.93 -13.71 -1.17 -13.91 -0.39 -14.06 0 0zm294.21 -269.77l0 87.94 0 0 -10.84 0.25 -10.68 0.73 -10.51 1.21 -10.32 1.66 -10.12 2.11 -9.91 2.54 -9.68 2.96 -9.46 3.36 -9.21 3.76 -8.93 4.13 -8.69 4.51 -8.38 4.85 -8.09 5.2 -7.78 5.52 -7.44 5.82 -7.1 6.12 -6.76 6.4 -6.39 6.65 -6.01 6.92 -5.64 7.15 -5.22 7.35 -4.82 7.57 -4.42 7.79 -3.98 7.94 -3.55 8.14 -3.11 8.3 -2.65 8.44 -2.2 8.61 -1.74 8.74 -1.24 8.89 -0.77 9.03 -0.26 9.17 -88.32 0 0.39 -14.06 1.17 -13.91 1.93 -13.71 2.67 -13.5 3.38 -13.24 4.09 -13 4.75 -12.68 5.4 -12.38 6.03 -12.06 6.64 -11.69 7.22 -11.34 7.78 -10.96 8.31 -10.56 8.83 -10.14 9.34 -9.74 9.8 -9.27 10.26 -8.84 10.71 -8.37 11.12 -7.89 11.53 -7.4 11.9 -6.89 12.26 -6.38 12.62 -5.83 12.95 -5.28 13.24 -4.72 13.55 -4.15 13.83 -3.54 14.06 -2.93 14.32 -2.31 14.51 -1.66 14.71 -1.02 14.9 -0.33 0 0z"/>
    <path id="1" class="fil6" d="M3315.68 3665.03c138.11,0 250.06,101.09 250.06,225.81 0,124.71 -111.95,225.81 -250.06,225.81 -138.1,0 -250.05,-101.1 -250.05,-225.81 0,-124.71 111.95,-225.81 250.05,-225.81z"/>
   </g>
   <g>
    <polygon class="fil2 str2" points="863.39,5144.2 863.39,5303.12 647.63,5303.12 647.63,5958.54 449.27,5958.54 449.27,5303.12 233.5,5303.12 233.5,5144.2 "/>
   </g>
   <g>
    <path id="1" class="fil2 str2" d="M1378.44 5958.54l-169.36 -307.41 -47.57 0 0 307.41 -198.36 0 0 -814.34 332.92 0c64.19,0 118.9,11.22 164.15,33.64 45.24,22.43 79.07,53.17 101.5,92.22 22.43,39.05 33.64,82.55 33.64,130.51 0,54.14 -15.27,102.47 -45.82,145 -30.54,42.53 -75.59,72.69 -135.14,90.48l187.92 322.49 -223.89 0zm-216.92 -447.77l122.97 0c36.34,0 63.61,-8.89 81.78,-26.68 18.17,-17.79 27.26,-42.93 27.26,-75.4 0,-30.94 -9.09,-55.3 -27.26,-73.08 -18.17,-17.79 -45.44,-26.68 -81.78,-26.68l-122.97 0 0 201.84z"/>
   </g>
   <g>
    <path id="2" class="fil2 str2" d="M2226.43 5814.69l-303.93 0 -48.72 143.84 -207.64 0 294.65 -814.34 229.69 0 294.64 814.34 -209.96 0 -48.72 -143.84zm-51.04 -153.12l-100.93 -298.13 -99.77 298.13 200.69 0z"/>
   </g>
   <g>
    <path id="3" class="fil2 str2" d="M2540.79 5550.21c0,-80.43 17.4,-152.16 52.21,-215.19 34.8,-63.02 83.32,-112.13 145.58,-147.32 62.26,-35.19 132.83,-52.78 211.71,-52.78 96.67,0 179.42,25.52 248.24,76.56 68.83,51.05 114.85,120.65 138.04,208.8l-218.08 0c-16.24,-34.02 -39.25,-59.93 -69.03,-77.72 -29.77,-17.79 -63.61,-26.68 -101.5,-26.68 -61.1,0 -110.59,21.27 -148.48,63.8 -37.89,42.53 -56.84,99.37 -56.84,170.53 0,71.15 18.95,127.98 56.84,170.52 37.89,42.53 87.39,63.8 148.48,63.8 37.89,0 71.73,-8.89 101.5,-26.68 29.77,-17.79 52.78,-43.69 69.03,-77.72l218.08 0c-23.19,88.16 -69.21,157.57 -138.04,208.22 -68.82,50.65 -151.57,75.99 -248.24,75.99 -78.88,0 -149.45,-17.59 -211.71,-52.78 -62.26,-35.19 -110.78,-84.1 -145.58,-146.74 -34.8,-62.64 -52.21,-134.18 -52.21,-214.6z"/>
   </g>
   <g>
    <polygon id="4" class="fil2 str2" points="3930.5,5958.54 3656.74,5598.93 3656.74,5958.54 3458.38,5958.54 3458.38,5144.2 3656.74,5144.2 3656.74,5501.48 3928.19,5144.2 4161.35,5144.2 3845.83,5543.25 4172.95,5958.54 "/>
   </g>
   <g>
    <polygon id="5" class="fil2 str2" points="4711.21,5805.41 4971.06,5805.41 4971.06,5958.54 4512.84,5958.54 4512.84,5144.2 4711.21,5144.2 "/>
   </g>
   <g>
    <path id="6" class="fil2 str2" d="M5451.3 5966.66c-76.56,0 -146.75,-17.79 -210.55,-53.36 -63.8,-35.58 -114.46,-85.27 -151.96,-149.07 -37.51,-63.8 -56.26,-135.53 -56.26,-215.18 0,-79.66 18.75,-151.2 56.26,-214.6 37.51,-63.42 88.16,-112.91 151.96,-148.48 63.8,-35.58 133.99,-53.37 210.55,-53.37 76.56,0 146.74,17.79 210.54,53.37 63.8,35.57 114.07,85.07 150.8,148.48 36.73,63.41 55.1,134.95 55.1,214.6 0,79.65 -18.56,151.38 -55.68,215.18 -37.13,63.8 -87.39,113.49 -150.8,149.07 -63.42,35.57 -133.4,53.36 -209.96,53.36zm0 -180.97c64.96,0 116.97,-21.65 156.02,-64.96 39.05,-43.3 58.58,-100.53 58.58,-171.68 0,-71.92 -19.53,-129.35 -58.58,-172.26 -39.05,-42.93 -91.06,-64.38 -156.02,-64.38 -65.74,0 -118.14,21.27 -157.19,63.8 -39.05,42.53 -58.58,100.15 -58.58,172.85 0,71.92 19.52,129.34 58.58,172.26 39.05,42.92 91.45,64.38 157.19,64.38z"/>
   </g>
   <g>
    <path id="7" class="fil2 str2" d="M6518.52 5401.73c-14.7,-27.07 -35.77,-47.76 -63.22,-62.06 -27.45,-14.31 -59.74,-21.46 -96.86,-21.46 -64.19,0 -115.62,21.07 -154.28,63.22 -38.67,42.15 -58,98.41 -58,168.79 0,75.01 20.3,133.59 60.9,175.74 40.61,42.14 96.48,63.22 167.63,63.22 48.72,0 89.9,-12.37 123.54,-37.12 33.64,-24.75 58.2,-60.32 73.67,-106.73l-251.73 0 0 -146.16 431.53 0 0 184.45c-14.69,49.49 -39.63,95.51 -74.82,138.04 -35.19,42.53 -79.85,76.95 -133.99,103.24 -54.14,26.3 -115.23,39.45 -183.28,39.45 -80.43,0 -152.16,-17.59 -215.19,-52.78 -63.02,-35.19 -112.13,-84.1 -147.32,-146.74 -35.19,-62.64 -52.78,-134.18 -52.78,-214.6 0,-80.43 17.59,-152.16 52.78,-215.19 35.19,-63.02 84.11,-112.13 146.75,-147.32 62.64,-35.19 134.18,-52.78 214.6,-52.78 97.44,0 179.61,23.59 246.5,70.76 66.9,47.17 111.17,112.53 132.83,196.05l-219.25 0z"/>
   </g>
   <g>
    <polygon id="8" class="fil2 str2" points="7060.25,5144.2 7060.25,5958.54 6861.89,5958.54 6861.89,5144.2 "/>
   </g>
   <g>
    <path id="9" class="fil2 str2" d="M7498.74 5966.66c-59.55,0 -112.91,-9.67 -160.09,-29 -47.17,-19.33 -84.88,-47.94 -113.1,-85.84 -28.23,-37.89 -43.11,-83.51 -44.66,-136.88l211.12 0c3.1,30.16 13.54,53.17 31.32,69.03 17.79,15.85 40.99,23.78 69.6,23.78 29.39,0 52.59,-6.77 69.6,-20.3 17.01,-13.54 25.52,-32.29 25.52,-56.26 0,-20.11 -6.77,-36.73 -20.31,-49.88 -13.53,-13.15 -30.16,-23.98 -49.88,-32.48 -19.72,-8.51 -47.75,-18.17 -84.1,-29 -52.59,-16.24 -95.51,-32.48 -128.76,-48.73 -33.26,-16.23 -61.87,-40.21 -85.84,-71.92 -23.98,-31.71 -35.96,-73.08 -35.96,-124.12 0,-75.79 27.46,-135.15 82.36,-178.06 54.91,-42.92 126.44,-64.38 214.6,-64.38 89.71,0 162.02,21.47 216.92,64.38 54.91,42.92 84.3,102.66 88.16,179.22l-214.6 0c-1.54,-26.29 -11.22,-46.98 -29,-62.06 -17.79,-15.07 -40.6,-22.62 -68.44,-22.62 -23.97,0 -43.3,6.39 -58,19.14 -14.69,12.76 -22.04,31.13 -22.04,55.1 0,26.29 12.38,46.79 37.13,61.48 24.75,14.7 63.42,30.55 116,47.57 52.59,17.79 95.32,34.8 128.19,51.04 32.87,16.24 61.29,39.83 85.26,70.76 23.98,30.93 35.96,70.76 35.96,119.48 0,46.41 -11.79,88.55 -35.38,126.45 -23.59,37.89 -57.81,68.05 -102.66,90.48 -44.85,22.43 -97.83,33.64 -158.93,33.64z"/>
   </g>
   <g>
    <polygon id="10" class="fil2 str2" points="8503.32,5144.2 8503.32,5303.12 8287.56,5303.12 8287.56,5958.54 8089.2,5958.54 8089.2,5303.12 7873.43,5303.12 7873.43,5144.2 "/>
   </g>
   <g>
    <polygon id="11" class="fil2 str2" points="8801.45,5144.2 8801.45,5958.54 8603.09,5958.54 8603.09,5144.2 "/>
   </g>
   <g>
    <path id="12" class="fil2 str2" d="M8911.65 5550.21c0,-80.43 17.4,-152.16 52.21,-215.19 34.8,-63.02 83.32,-112.13 145.58,-147.32 62.26,-35.19 132.83,-52.78 211.71,-52.78 96.67,0 179.42,25.52 248.24,76.56 68.83,51.05 114.85,120.65 138.04,208.8l-218.08 0c-16.24,-34.02 -39.25,-59.93 -69.03,-77.72 -29.77,-17.79 -63.61,-26.68 -101.5,-26.68 -61.1,0 -110.59,21.27 -148.48,63.8 -37.89,42.53 -56.84,99.37 -56.84,170.53 0,71.15 18.95,127.98 56.84,170.52 37.89,42.53 87.39,63.8 148.48,63.8 37.89,0 71.73,-8.89 101.5,-26.68 29.77,-17.79 52.78,-43.69 69.03,-77.72l218.08 0c-23.19,88.16 -69.21,157.57 -138.04,208.22 -68.82,50.65 -151.57,75.99 -248.24,75.99 -78.88,0 -149.45,-17.59 -211.71,-52.78 -62.26,-35.19 -110.78,-84.1 -145.58,-146.74 -34.8,-62.64 -52.21,-134.18 -52.21,-214.6z"/>
   </g>
   <g>
    <path id="13" class="fil2 str2" d="M10123.88 5966.66c-59.55,0 -112.91,-9.67 -160.09,-29 -47.17,-19.33 -84.88,-47.94 -113.1,-85.84 -28.23,-37.89 -43.11,-83.51 -44.66,-136.88l211.12 0c3.1,30.16 13.54,53.17 31.32,69.03 17.79,15.85 40.99,23.78 69.6,23.78 29.39,0 52.59,-6.77 69.6,-20.3 17.01,-13.54 25.52,-32.29 25.52,-56.26 0,-20.11 -6.77,-36.73 -20.31,-49.88 -13.53,-13.15 -30.16,-23.98 -49.88,-32.48 -19.72,-8.51 -47.75,-18.17 -84.1,-29 -52.59,-16.24 -95.51,-32.48 -128.76,-48.73 -33.26,-16.23 -61.87,-40.21 -85.84,-71.92 -23.98,-31.71 -35.96,-73.08 -35.96,-124.12 0,-75.79 27.46,-135.15 82.36,-178.06 54.91,-42.92 126.44,-64.38 214.6,-64.38 89.71,0 162.02,21.47 216.92,64.38 54.91,42.92 84.3,102.66 88.16,179.22l-214.6 0c-1.54,-26.29 -11.22,-46.98 -29,-62.06 -17.79,-15.07 -40.6,-22.62 -68.44,-22.62 -23.97,0 -43.3,6.39 -58,19.14 -14.69,12.76 -22.04,31.13 -22.04,55.1 0,26.29 12.38,46.79 37.13,61.48 24.75,14.7 63.42,30.55 116,47.57 52.59,17.79 95.32,34.8 128.19,51.04 32.87,16.24 61.29,39.83 85.26,70.76 23.98,30.93 35.96,70.76 35.96,119.48 0,46.41 -11.79,88.55 -35.38,126.45 -23.59,37.89 -57.81,68.05 -102.66,90.48 -44.85,22.43 -97.83,33.64 -158.93,33.64z"/>
   </g>
   <polygon id="14" class="fil7" points="863.39,5144.2 863.39,5303.12 647.63,5303.12 647.63,5958.54 449.27,5958.54 449.27,5303.12 233.5,5303.12 233.5,5144.2 "/>
   <path id="15" class="fil7" d="M1378.44 5958.54l-169.36 -307.41 -47.57 0 0 307.41 -198.36 0 0 -814.34 332.92 0c64.19,0 118.9,11.22 164.15,33.64 45.24,22.43 79.07,53.17 101.5,92.22 22.43,39.05 33.64,82.55 33.64,130.51 0,54.14 -15.27,102.47 -45.82,145 -30.54,42.53 -75.59,72.69 -135.14,90.48l187.92 322.49 -223.89 0zm-216.92 -447.77l122.97 0c36.34,0 63.61,-8.89 81.78,-26.68 18.17,-17.79 27.26,-42.93 27.26,-75.4 0,-30.94 -9.09,-55.3 -27.26,-73.08 -18.17,-17.79 -45.44,-26.68 -81.78,-26.68l-122.97 0 0 201.84z"/>
   <path id="16" class="fil7" d="M2226.43 5814.69l-303.93 0 -48.72 143.84 -207.64 0 294.65 -814.34 229.69 0 294.64 814.34 -209.96 0 -48.72 -143.84zm-51.04 -153.12l-100.93 -298.13 -99.77 298.13 200.69 0z"/>
   <path id="17" class="fil7" d="M2540.79 5550.21c0,-80.43 17.4,-152.16 52.21,-215.19 34.8,-63.02 83.32,-112.13 145.58,-147.32 62.26,-35.19 132.83,-52.78 211.71,-52.78 96.67,0 179.42,25.52 248.24,76.56 68.83,51.05 114.85,120.65 138.04,208.8l-218.08 0c-16.24,-34.02 -39.25,-59.93 -69.03,-77.72 -29.77,-17.79 -63.61,-26.68 -101.5,-26.68 -61.1,0 -110.59,21.27 -148.48,63.8 -37.89,42.53 -56.84,99.37 -56.84,170.53 0,71.15 18.95,127.98 56.84,170.52 37.89,42.53 87.39,63.8 148.48,63.8 37.89,0 71.73,-8.89 101.5,-26.68 29.77,-17.79 52.78,-43.69 69.03,-77.72l218.08 0c-23.19,88.16 -69.21,157.57 -138.04,208.22 -68.82,50.65 -151.57,75.99 -248.24,75.99 -78.88,0 -149.45,-17.59 -211.71,-52.78 -62.26,-35.19 -110.78,-84.1 -145.58,-146.74 -34.8,-62.64 -52.21,-134.18 -52.21,-214.6z"/>
   <polygon id="18" class="fil7" points="3930.5,5958.54 3656.74,5598.93 3656.74,5958.54 3458.38,5958.54 3458.38,5144.2 3656.74,5144.2 3656.74,5501.48 3928.19,5144.2 4161.35,5144.2 3845.83,5543.25 4172.95,5958.54 "/>
   <polygon id="19" class="fil7" points="4711.21,5805.41 4971.06,5805.41 4971.06,5958.54 4512.84,5958.54 4512.84,5144.2 4711.21,5144.2 "/>
   <path id="20" class="fil7" d="M5451.3 5966.66c-76.56,0 -146.75,-17.79 -210.55,-53.36 -63.8,-35.58 -114.46,-85.27 -151.96,-149.07 -37.51,-63.8 -56.26,-135.53 -56.26,-215.18 0,-79.66 18.75,-151.2 56.26,-214.6 37.51,-63.42 88.16,-112.91 151.96,-148.48 63.8,-35.58 133.99,-53.37 210.55,-53.37 76.56,0 146.74,17.79 210.54,53.37 63.8,35.57 114.07,85.07 150.8,148.48 36.73,63.41 55.1,134.95 55.1,214.6 0,79.65 -18.56,151.38 -55.68,215.18 -37.13,63.8 -87.39,113.49 -150.8,149.07 -63.42,35.57 -133.4,53.36 -209.96,53.36zm0 -180.97c64.96,0 116.97,-21.65 156.02,-64.96 39.05,-43.3 58.58,-100.53 58.58,-171.68 0,-71.92 -19.53,-129.35 -58.58,-172.26 -39.05,-42.93 -91.06,-64.38 -156.02,-64.38 -65.74,0 -118.14,21.27 -157.19,63.8 -39.05,42.53 -58.58,100.15 -58.58,172.85 0,71.92 19.52,129.34 58.58,172.26 39.05,42.92 91.45,64.38 157.19,64.38z"/>
   <path id="21" class="fil7" d="M6518.52 5401.73c-14.7,-27.07 -35.77,-47.76 -63.22,-62.06 -27.45,-14.31 -59.74,-21.46 -96.86,-21.46 -64.19,0 -115.62,21.07 -154.28,63.22 -38.67,42.15 -58,98.41 -58,168.79 0,75.01 20.3,133.59 60.9,175.74 40.61,42.14 96.48,63.22 167.63,63.22 48.72,0 89.9,-12.37 123.54,-37.12 33.64,-24.75 58.2,-60.32 73.67,-106.73l-251.73 0 0 -146.16 431.53 0 0 184.45c-14.69,49.49 -39.63,95.51 -74.82,138.04 -35.19,42.53 -79.85,76.95 -133.99,103.24 -54.14,26.3 -115.23,39.45 -183.28,39.45 -80.43,0 -152.16,-17.59 -215.19,-52.78 -63.02,-35.19 -112.13,-84.1 -147.32,-146.74 -35.19,-62.64 -52.78,-134.18 -52.78,-214.6 0,-80.43 17.59,-152.16 52.78,-215.19 35.19,-63.02 84.11,-112.13 146.75,-147.32 62.64,-35.19 134.18,-52.78 214.6,-52.78 97.44,0 179.61,23.59 246.5,70.76 66.9,47.17 111.17,112.53 132.83,196.05l-219.25 0z"/>
   <polygon id="22" class="fil7" points="7060.25,5144.2 7060.25,5958.54 6861.89,5958.54 6861.89,5144.2 "/>
   <path id="23" class="fil7" d="M7498.74 5966.66c-59.55,0 -112.91,-9.67 -160.09,-29 -47.17,-19.33 -84.88,-47.94 -113.1,-85.84 -28.23,-37.89 -43.11,-83.51 -44.66,-136.88l211.12 0c3.1,30.16 13.54,53.17 31.32,69.03 17.79,15.85 40.99,23.78 69.6,23.78 29.39,0 52.59,-6.77 69.6,-20.3 17.01,-13.54 25.52,-32.29 25.52,-56.26 0,-20.11 -6.77,-36.73 -20.31,-49.88 -13.53,-13.15 -30.16,-23.98 -49.88,-32.48 -19.72,-8.51 -47.75,-18.17 -84.1,-29 -52.59,-16.24 -95.51,-32.48 -128.76,-48.73 -33.26,-16.23 -61.87,-40.21 -85.84,-71.92 -23.98,-31.71 -35.96,-73.08 -35.96,-124.12 0,-75.79 27.46,-135.15 82.36,-178.06 54.91,-42.92 126.44,-64.38 214.6,-64.38 89.71,0 162.02,21.47 216.92,64.38 54.91,42.92 84.3,102.66 88.16,179.22l-214.6 0c-1.54,-26.29 -11.22,-46.98 -29,-62.06 -17.79,-15.07 -40.6,-22.62 -68.44,-22.62 -23.97,0 -43.3,6.39 -58,19.14 -14.69,12.76 -22.04,31.13 -22.04,55.1 0,26.29 12.38,46.79 37.13,61.48 24.75,14.7 63.42,30.55 116,47.57 52.59,17.79 95.32,34.8 128.19,51.04 32.87,16.24 61.29,39.83 85.26,70.76 23.98,30.93 35.96,70.76 35.96,119.48 0,46.41 -11.79,88.55 -35.38,126.45 -23.59,37.89 -57.81,68.05 -102.66,90.48 -44.85,22.43 -97.83,33.64 -158.93,33.64z"/>
   <polygon id="24" class="fil7" points="8503.32,5144.2 8503.32,5303.12 8287.56,5303.12 8287.56,5958.54 8089.2,5958.54 8089.2,5303.12 7873.43,5303.12 7873.43,5144.2 "/>
   <polygon id="25" class="fil7" points="8801.45,5144.2 8801.45,5958.54 8603.09,5958.54 8603.09,5144.2 "/>
   <path id="26" class="fil7" d="M8911.65 5550.21c0,-80.43 17.4,-152.16 52.21,-215.19 34.8,-63.02 83.32,-112.13 145.58,-147.32 62.26,-35.19 132.83,-52.78 211.71,-52.78 96.67,0 179.42,25.52 248.24,76.56 68.83,51.05 114.85,120.65 138.04,208.8l-218.08 0c-16.24,-34.02 -39.25,-59.93 -69.03,-77.72 -29.77,-17.79 -63.61,-26.68 -101.5,-26.68 -61.1,0 -110.59,21.27 -148.48,63.8 -37.89,42.53 -56.84,99.37 -56.84,170.53 0,71.15 18.95,127.98 56.84,170.52 37.89,42.53 87.39,63.8 148.48,63.8 37.89,0 71.73,-8.89 101.5,-26.68 29.77,-17.79 52.78,-43.69 69.03,-77.72l218.08 0c-23.19,88.16 -69.21,157.57 -138.04,208.22 -68.82,50.65 -151.57,75.99 -248.24,75.99 -78.88,0 -149.45,-17.59 -211.71,-52.78 -62.26,-35.19 -110.78,-84.1 -145.58,-146.74 -34.8,-62.64 -52.21,-134.18 -52.21,-214.6z"/>
   <path id="27" class="fil7" d="M10123.88 5966.66c-59.55,0 -112.91,-9.67 -160.09,-29 -47.17,-19.33 -84.88,-47.94 -113.1,-85.84 -28.23,-37.89 -43.11,-83.51 -44.66,-136.88l211.12 0c3.1,30.16 13.54,53.17 31.32,69.03 17.79,15.85 40.99,23.78 69.6,23.78 29.39,0 52.59,-6.77 69.6,-20.3 17.01,-13.54 25.52,-32.29 25.52,-56.26 0,-20.11 -6.77,-36.73 -20.31,-49.88 -13.53,-13.15 -30.16,-23.98 -49.88,-32.48 -19.72,-8.51 -47.75,-18.17 -84.1,-29 -52.59,-16.24 -95.51,-32.48 -128.76,-48.73 -33.26,-16.23 -61.87,-40.21 -85.84,-71.92 -23.98,-31.71 -35.96,-73.08 -35.96,-124.12 0,-75.79 27.46,-135.15 82.36,-178.06 54.91,-42.92 126.44,-64.38 214.6,-64.38 89.71,0 162.02,21.47 216.92,64.38 54.91,42.92 84.3,102.66 88.16,179.22l-214.6 0c-1.54,-26.29 -11.22,-46.98 -29,-62.06 -17.79,-15.07 -40.6,-22.62 -68.44,-22.62 -23.97,0 -43.3,6.39 -58,19.14 -14.69,12.76 -22.04,31.13 -22.04,55.1 0,26.29 12.38,46.79 37.13,61.48 24.75,14.7 63.42,30.55 116,47.57 52.59,17.79 95.32,34.8 128.19,51.04 32.87,16.24 61.29,39.83 85.26,70.76 23.98,30.93 35.96,70.76 35.96,119.48 0,46.41 -11.79,88.55 -35.38,126.45 -23.59,37.89 -57.81,68.05 -102.66,90.48 -44.85,22.43 -97.83,33.64 -158.93,33.64z"/>
   <g>
    <path class="fil2 str3" d="M714.82 6621.82l-84.41 -153.21 -23.7 0 0 153.21 -98.86 0 0 -405.86 165.93 0c31.99,0 59.26,5.59 81.8,16.77 22.55,11.18 39.41,26.5 50.59,45.96 11.18,19.46 16.77,41.14 16.77,65.04 0,26.98 -7.61,51.06 -22.84,72.26 -15.22,21.2 -37.68,36.23 -67.36,45.1l93.66 160.73 -111.58 0zm-108.11 -223.17l61.28 0c18.12,0 31.7,-4.43 40.76,-13.3 9.06,-8.86 13.58,-21.39 13.58,-37.58 0,-15.42 -4.52,-27.55 -13.58,-36.42 -9.06,-8.87 -22.64,-13.3 -40.76,-13.3l-61.28 0 0 100.6z"/>
   </g>
   <g>
    <path id="1" class="fil2 str3" d="M868.03 6418.31c0,-40.08 8.67,-75.83 26.02,-107.24 17.34,-31.42 41.53,-55.89 72.56,-73.42 31.03,-17.54 66.2,-26.31 105.52,-26.31 48.18,0 89.42,12.72 123.72,38.16 34.3,25.44 57.24,60.13 68.8,104.06l-108.69 0c-8.1,-16.96 -19.56,-29.87 -34.4,-38.74 -14.84,-8.86 -31.7,-13.3 -50.59,-13.3 -30.45,0 -55.11,10.6 -74,31.8 -18.89,21.2 -28.33,49.53 -28.33,84.98 0,35.46 9.44,63.79 28.33,84.99 18.89,21.2 43.55,31.8 74,31.8 18.89,0 35.75,-4.43 50.59,-13.3 14.84,-8.86 26.31,-21.78 34.4,-38.74l108.69 0c-11.56,43.94 -34.5,78.53 -68.8,103.78 -34.3,25.25 -75.54,37.87 -123.72,37.87 -39.31,0 -74.48,-8.76 -105.52,-26.3 -31.02,-17.54 -55.21,-41.92 -72.56,-73.14 -17.34,-31.22 -26.02,-66.87 -26.02,-106.96z"/>
   </g>
   <g>
    <path id="2" class="fil2 str3" d="M1371.6 6626.44c-17.34,0 -31.51,-5.11 -42.49,-15.32 -10.98,-10.22 -16.48,-22.84 -16.48,-37.88 0,-15.42 5.49,-28.33 16.48,-38.74 10.98,-10.4 25.15,-15.61 42.49,-15.61 16.96,0 30.93,5.21 41.92,15.61 10.98,10.41 16.48,23.32 16.48,38.74 0,15.03 -5.49,27.66 -16.48,37.88 -10.98,10.21 -24.96,15.32 -41.92,15.32zm0 -235.3c-17.34,0 -31.51,-5.11 -42.49,-15.32 -10.98,-10.22 -16.48,-22.84 -16.48,-37.87 0,-15.42 5.49,-28.33 16.48,-38.74 10.98,-10.41 25.15,-15.61 42.49,-15.61 16.96,0 30.93,5.2 41.92,15.61 10.98,10.41 16.48,23.32 16.48,38.74 0,15.03 -5.49,27.65 -16.48,37.87 -10.98,10.22 -24.96,15.32 -41.92,15.32z"/>
   </g>
   <g>
    <path id="3" class="fil2 str3" d="M1857.82 6413.68c23.51,5.01 42.4,16.67 56.66,34.98 14.26,18.3 21.39,39.22 21.39,62.73 0,33.91 -11.85,60.8 -35.56,80.65 -23.7,19.85 -56.76,29.77 -99.15,29.77l-189.06 0 0 -405.86 182.7 0c41.24,0 73.52,9.45 96.84,28.33 23.32,18.89 34.98,44.52 34.98,76.9 0,23.9 -6.26,43.74 -18.79,59.55 -12.53,15.8 -29.2,26.78 -50.01,32.95zm-146.85 -33.53l64.75 0c16.18,0 28.62,-3.57 37.29,-10.7 8.67,-7.13 13,-17.64 13,-31.51 0,-13.88 -4.33,-24.47 -13,-31.8 -8.67,-7.32 -21.11,-10.98 -37.29,-10.98l-64.75 0 0 84.99zm72.85 161.88c16.57,0 29.39,-3.76 38.44,-11.28 9.06,-7.51 13.59,-18.4 13.59,-32.67 0,-14.26 -4.72,-25.43 -14.16,-33.53 -9.45,-8.1 -22.45,-12.14 -39.03,-12.14l-71.69 0 0 89.62 72.85 0z"/>
   </g>
   <g>
    <polygon id="4" class="fil2 str3" points="2356.19,6621.82 2257.33,6621.82 2091.98,6371.49 2091.98,6621.82 1993.11,6621.82 1993.11,6215.96 2091.98,6215.96 2257.33,6467.45 2257.33,6215.96 2356.19,6215.96 "/>
   </g>
   <g>
    <path id="5" class="fil2 str3" d="M2487.42 6395.19c-36.22,-19.27 -54.34,-49.53 -54.34,-90.78 0,-20.81 5.4,-39.8 16.19,-56.95 10.79,-17.15 27.17,-30.83 49.14,-41.05 21.98,-10.22 48.95,-15.32 80.94,-15.32 31.99,0 58.88,5.1 80.65,15.32 21.78,10.22 38.06,23.9 48.85,41.05 10.79,17.15 16.19,36.14 16.19,56.95 0,20.82 -4.92,38.93 -14.74,54.35 -9.83,15.42 -23.04,27.55 -39.6,36.42 20.81,10.02 36.81,23.8 47.98,41.33 11.18,17.54 16.77,38.06 16.77,61.57 0,27.37 -6.94,50.98 -20.82,70.83 -13.87,19.85 -32.67,34.98 -56.37,45.39 -23.7,10.4 -50,15.61 -78.92,15.61 -28.9,0 -55.21,-5.21 -78.92,-15.61 -23.7,-10.41 -42.49,-25.54 -56.37,-45.39 -13.87,-19.85 -20.81,-43.46 -20.81,-70.83 0,-23.9 5.58,-44.61 16.76,-62.15 11.18,-17.54 26.98,-31.12 47.41,-40.76zm141.65 -75.74c0,-15.8 -4.52,-28.04 -13.59,-36.71 -9.06,-8.67 -21.1,-13.01 -36.13,-13.01 -15.03,0 -27.08,4.43 -36.13,13.3 -9.06,8.86 -13.59,21.2 -13.59,37.01 0,15.03 4.62,26.88 13.87,35.56 9.26,8.67 21.2,13 35.85,13 14.65,0 26.6,-4.43 35.85,-13.3 9.25,-8.86 13.87,-20.82 13.87,-35.85zm-49.72 118.52c-18.11,0 -32.76,4.92 -43.94,14.75 -11.18,9.82 -16.77,23.41 -16.77,40.76 0,16.19 5.49,29.49 16.48,39.9 10.98,10.41 25.73,15.61 44.23,15.61 18.5,0 33.05,-5.2 43.65,-15.61 10.6,-10.41 15.9,-23.7 15.9,-39.9 0,-16.96 -5.49,-30.45 -16.48,-40.47 -10.98,-10.02 -25.35,-15.03 -43.08,-15.03z"/>
   </g>
   <g>
    <path id="6" class="fil2 str3" d="M2795 6546.66l0 -79.78 182.7 -261.33 110.43 0 0 255.54 47.41 0 0 85.57 -47.41 0 0 75.16 -98.86 0 0 -75.16 -194.26 0zm201.2 -232.42l-97.13 146.85 97.13 0 0 -146.85z"/>
   </g>
   <g>
    <polygon id="7" class="fil2 str3" points="3173.69,6291.69 3173.69,6199.77 3333.84,6199.77 3333.84,6621.82 3230.93,6621.82 3230.93,6291.69 "/>
   </g>
   <g>
    <path id="8" class="fil2 str3" d="M3470.85 6395.19c-36.22,-19.27 -54.34,-49.53 -54.34,-90.78 0,-20.81 5.4,-39.8 16.19,-56.95 10.79,-17.15 27.17,-30.83 49.14,-41.05 21.98,-10.22 48.95,-15.32 80.94,-15.32 31.99,0 58.88,5.1 80.65,15.32 21.78,10.22 38.06,23.9 48.85,41.05 10.79,17.15 16.19,36.14 16.19,56.95 0,20.82 -4.92,38.93 -14.74,54.35 -9.83,15.42 -23.04,27.55 -39.6,36.42 20.81,10.02 36.81,23.8 47.98,41.33 11.18,17.54 16.77,38.06 16.77,61.57 0,27.37 -6.94,50.98 -20.82,70.83 -13.87,19.85 -32.67,34.98 -56.37,45.39 -23.7,10.4 -50,15.61 -78.92,15.61 -28.9,0 -55.21,-5.21 -78.92,-15.61 -23.7,-10.41 -42.49,-25.54 -56.37,-45.39 -13.87,-19.85 -20.81,-43.46 -20.81,-70.83 0,-23.9 5.58,-44.61 16.76,-62.15 11.18,-17.54 26.98,-31.12 47.41,-40.76zm141.65 -75.74c0,-15.8 -4.52,-28.04 -13.59,-36.71 -9.06,-8.67 -21.1,-13.01 -36.13,-13.01 -15.03,0 -27.08,4.43 -36.13,13.3 -9.06,8.86 -13.59,21.2 -13.59,37.01 0,15.03 4.62,26.88 13.87,35.56 9.26,8.67 21.2,13 35.85,13 14.65,0 26.6,-4.43 35.85,-13.3 9.25,-8.86 13.87,-20.82 13.87,-35.85zm-49.72 118.52c-18.11,0 -32.76,4.92 -43.94,14.75 -11.18,9.82 -16.77,23.41 -16.77,40.76 0,16.19 5.49,29.49 16.48,39.9 10.98,10.41 25.73,15.61 44.23,15.61 18.5,0 33.05,-5.2 43.65,-15.61 10.6,-10.41 15.9,-23.7 15.9,-39.9 0,-16.96 -5.49,-30.45 -16.48,-40.47 -10.98,-10.02 -25.35,-15.03 -43.08,-15.03z"/>
   </g>
   <path id="9" class="fil7" d="M714.82 6621.82l-84.41 -153.21 -23.7 0 0 153.21 -98.86 0 0 -405.86 165.93 0c31.99,0 59.26,5.59 81.8,16.77 22.55,11.18 39.41,26.5 50.59,45.96 11.18,19.46 16.77,41.14 16.77,65.04 0,26.98 -7.61,51.06 -22.84,72.26 -15.22,21.2 -37.68,36.23 -67.36,45.1l93.66 160.73 -111.58 0zm-108.11 -223.17l61.28 0c18.12,0 31.7,-4.43 40.76,-13.3 9.06,-8.86 13.58,-21.39 13.58,-37.58 0,-15.42 -4.52,-27.55 -13.58,-36.42 -9.06,-8.87 -22.64,-13.3 -40.76,-13.3l-61.28 0 0 100.6z"/>
   <path id="10" class="fil7" d="M868.03 6418.31c0,-40.08 8.67,-75.83 26.02,-107.24 17.34,-31.42 41.53,-55.89 72.56,-73.42 31.03,-17.54 66.2,-26.31 105.52,-26.31 48.18,0 89.42,12.72 123.72,38.16 34.3,25.44 57.24,60.13 68.8,104.06l-108.69 0c-8.1,-16.96 -19.56,-29.87 -34.4,-38.74 -14.84,-8.86 -31.7,-13.3 -50.59,-13.3 -30.45,0 -55.11,10.6 -74,31.8 -18.89,21.2 -28.33,49.53 -28.33,84.98 0,35.46 9.44,63.79 28.33,84.99 18.89,21.2 43.55,31.8 74,31.8 18.89,0 35.75,-4.43 50.59,-13.3 14.84,-8.86 26.31,-21.78 34.4,-38.74l108.69 0c-11.56,43.94 -34.5,78.53 -68.8,103.78 -34.3,25.25 -75.54,37.87 -123.72,37.87 -39.31,0 -74.48,-8.76 -105.52,-26.3 -31.02,-17.54 -55.21,-41.92 -72.56,-73.14 -17.34,-31.22 -26.02,-66.87 -26.02,-106.96z"/>
   <path id="11" class="fil7" d="M1371.6 6626.44c-17.34,0 -31.51,-5.11 -42.49,-15.32 -10.98,-10.22 -16.48,-22.84 -16.48,-37.88 0,-15.42 5.49,-28.33 16.48,-38.74 10.98,-10.4 25.15,-15.61 42.49,-15.61 16.96,0 30.93,5.21 41.92,15.61 10.98,10.41 16.48,23.32 16.48,38.74 0,15.03 -5.49,27.66 -16.48,37.88 -10.98,10.21 -24.96,15.32 -41.92,15.32zm0 -235.3c-17.34,0 -31.51,-5.11 -42.49,-15.32 -10.98,-10.22 -16.48,-22.84 -16.48,-37.87 0,-15.42 5.49,-28.33 16.48,-38.74 10.98,-10.41 25.15,-15.61 42.49,-15.61 16.96,0 30.93,5.2 41.92,15.61 10.98,10.41 16.48,23.32 16.48,38.74 0,15.03 -5.49,27.65 -16.48,37.87 -10.98,10.22 -24.96,15.32 -41.92,15.32z"/>
   <path id="12" class="fil7" d="M1857.82 6413.68c23.51,5.01 42.4,16.67 56.66,34.98 14.26,18.3 21.39,39.22 21.39,62.73 0,33.91 -11.85,60.8 -35.56,80.65 -23.7,19.85 -56.76,29.77 -99.15,29.77l-189.06 0 0 -405.86 182.7 0c41.24,0 73.52,9.45 96.84,28.33 23.32,18.89 34.98,44.52 34.98,76.9 0,23.9 -6.26,43.74 -18.79,59.55 -12.53,15.8 -29.2,26.78 -50.01,32.95zm-146.85 -33.53l64.75 0c16.18,0 28.62,-3.57 37.29,-10.7 8.67,-7.13 13,-17.64 13,-31.51 0,-13.88 -4.33,-24.47 -13,-31.8 -8.67,-7.32 -21.11,-10.98 -37.29,-10.98l-64.75 0 0 84.99zm72.85 161.88c16.57,0 29.39,-3.76 38.44,-11.28 9.06,-7.51 13.59,-18.4 13.59,-32.67 0,-14.26 -4.72,-25.43 -14.16,-33.53 -9.45,-8.1 -22.45,-12.14 -39.03,-12.14l-71.69 0 0 89.62 72.85 0z"/>
   <polygon id="13" class="fil7" points="2356.19,6621.82 2257.33,6621.82 2091.98,6371.49 2091.98,6621.82 1993.11,6621.82 1993.11,6215.96 2091.98,6215.96 2257.33,6467.45 2257.33,6215.96 2356.19,6215.96 "/>
   <path id="14" class="fil7" d="M2487.42 6395.19c-36.22,-19.27 -54.34,-49.53 -54.34,-90.78 0,-20.81 5.4,-39.8 16.19,-56.95 10.79,-17.15 27.17,-30.83 49.14,-41.05 21.98,-10.22 48.95,-15.32 80.94,-15.32 31.99,0 58.88,5.1 80.65,15.32 21.78,10.22 38.06,23.9 48.85,41.05 10.79,17.15 16.19,36.14 16.19,56.95 0,20.82 -4.92,38.93 -14.74,54.35 -9.83,15.42 -23.04,27.55 -39.6,36.42 20.81,10.02 36.81,23.8 47.98,41.33 11.18,17.54 16.77,38.06 16.77,61.57 0,27.37 -6.94,50.98 -20.82,70.83 -13.87,19.85 -32.67,34.98 -56.37,45.39 -23.7,10.4 -50,15.61 -78.92,15.61 -28.9,0 -55.21,-5.21 -78.92,-15.61 -23.7,-10.41 -42.49,-25.54 -56.37,-45.39 -13.87,-19.85 -20.81,-43.46 -20.81,-70.83 0,-23.9 5.58,-44.61 16.76,-62.15 11.18,-17.54 26.98,-31.12 47.41,-40.76zm141.65 -75.74c0,-15.8 -4.52,-28.04 -13.59,-36.71 -9.06,-8.67 -21.1,-13.01 -36.13,-13.01 -15.03,0 -27.08,4.43 -36.13,13.3 -9.06,8.86 -13.59,21.2 -13.59,37.01 0,15.03 4.62,26.88 13.87,35.56 9.26,8.67 21.2,13 35.85,13 14.65,0 26.6,-4.43 35.85,-13.3 9.25,-8.86 13.87,-20.82 13.87,-35.85zm-49.72 118.52c-18.11,0 -32.76,4.92 -43.94,14.75 -11.18,9.82 -16.77,23.41 -16.77,40.76 0,16.19 5.49,29.49 16.48,39.9 10.98,10.41 25.73,15.61 44.23,15.61 18.5,0 33.05,-5.2 43.65,-15.61 10.6,-10.41 15.9,-23.7 15.9,-39.9 0,-16.96 -5.49,-30.45 -16.48,-40.47 -10.98,-10.02 -25.35,-15.03 -43.08,-15.03z"/>
   <path id="15" class="fil7" d="M2795 6546.66l0 -79.78 182.7 -261.33 110.43 0 0 255.54 47.41 0 0 85.57 -47.41 0 0 75.16 -98.86 0 0 -75.16 -194.26 0zm201.2 -232.42l-97.13 146.85 97.13 0 0 -146.85z"/>
   <polygon id="16" class="fil7" points="3173.69,6291.69 3173.69,6199.77 3333.84,6199.77 3333.84,6621.82 3230.93,6621.82 3230.93,6291.69 "/>
   <path id="17" class="fil7" d="M3470.85 6395.19c-36.22,-19.27 -54.34,-49.53 -54.34,-90.78 0,-20.81 5.4,-39.8 16.19,-56.95 10.79,-17.15 27.17,-30.83 49.14,-41.05 21.98,-10.22 48.95,-15.32 80.94,-15.32 31.99,0 58.88,5.1 80.65,15.32 21.78,10.22 38.06,23.9 48.85,41.05 10.79,17.15 16.19,36.14 16.19,56.95 0,20.82 -4.92,38.93 -14.74,54.35 -9.83,15.42 -23.04,27.55 -39.6,36.42 20.81,10.02 36.81,23.8 47.98,41.33 11.18,17.54 16.77,38.06 16.77,61.57 0,27.37 -6.94,50.98 -20.82,70.83 -13.87,19.85 -32.67,34.98 -56.37,45.39 -23.7,10.4 -50,15.61 -78.92,15.61 -28.9,0 -55.21,-5.21 -78.92,-15.61 -23.7,-10.41 -42.49,-25.54 -56.37,-45.39 -13.87,-19.85 -20.81,-43.46 -20.81,-70.83 0,-23.9 5.58,-44.61 16.76,-62.15 11.18,-17.54 26.98,-31.12 47.41,-40.76zm141.65 -75.74c0,-15.8 -4.52,-28.04 -13.59,-36.71 -9.06,-8.67 -21.1,-13.01 -36.13,-13.01 -15.03,0 -27.08,4.43 -36.13,13.3 -9.06,8.86 -13.59,21.2 -13.59,37.01 0,15.03 4.62,26.88 13.87,35.56 9.26,8.67 21.2,13 35.85,13 14.65,0 26.6,-4.43 35.85,-13.3 9.25,-8.86 13.87,-20.82 13.87,-35.85zm-49.72 118.52c-18.11,0 -32.76,4.92 -43.94,14.75 -11.18,9.82 -16.77,23.41 -16.77,40.76 0,16.19 5.49,29.49 16.48,39.9 10.98,10.41 25.73,15.61 44.23,15.61 18.5,0 33.05,-5.2 43.65,-15.61 10.6,-10.41 15.9,-23.7 15.9,-39.9 0,-16.96 -5.49,-30.45 -16.48,-40.47 -10.98,-10.02 -25.35,-15.03 -43.08,-15.03z"/>
  </g>
 </g>
</svg>
