<svg width="126" height="44" viewBox="0 0 126 44" fill="none" xmlns="http://www.w3.org/2000/svg">
<path d="M19.4641 2.84342V8.73775C19.4641 8.73775 14.7874 10.0134 11.8015 11.6849C8.38097 13.5997 7.66981 14.0393 4.13885 18.1687C2.12279 20.5264 -0.193072 23.5848 0.0128158 27.5996C0.345319 34.0834 3.53427 38.2094 3.53427 38.2094C3.53427 38.2094 8.0898 42.3354 11.8015 42.3354C15.5131 42.3354 17.6255 42.0322 21.2324 41.1566C24.5578 40.3493 26.4634 39.8166 29.4845 38.2094C34.3787 35.6058 37.0404 32.97 40.6686 28.7785C44.7502 24.063 44.2203 24.063 45.9886 20.5264C47.8444 16.8147 48.0505 13.7964 46.578 9.91662C44.7793 5.1771 36.5577 1.66455 36.5577 1.66455C36.5577 1.66455 43.5834 6.80002 44.2203 11.6849C44.9125 16.994 42.4369 19.937 38.326 24.063C34.1572 28.2472 33.0059 28.189 25.9479 31.7256C20.8029 34.3036 20.0384 34.0834 11.8015 35.8517C9.94558 36.2501 8.77874 36.2174 7.67545 34.6728C6.11516 32.4884 7.6603 31.1362 10.6226 28.7785C12.4237 27.345 13.3366 26.3789 15.3381 25.2419C18.6931 23.3359 21.515 20.2209 24.769 22.2947C26.6003 23.4618 27.7162 27.0102 27.7162 27.0102C27.7162 27.0102 31.3647 21.7175 34.1999 18.7581C36.3423 16.5219 40.0943 13.4532 40.0943 13.4532C40.0943 13.4532 33.8115 9.17296 29.4845 6.96945C27.006 5.7073 25.9479 5.20115 23.0007 4.02228C21.7184 3.50935 19.4641 2.84342 19.4641 2.84342Z" fill="url(#paint0_linear_5061_182)"/>
<path d="M62.9009 10.8598C62.8652 10.4133 62.6978 10.065 62.3986 9.81494C62.1039 9.56488 61.6551 9.43985 61.0523 9.43985C60.6682 9.43985 60.3534 9.48673 60.1078 9.58051C59.8667 9.66982 59.6881 9.79262 59.572 9.9489C59.4559 10.1052 59.3956 10.2838 59.3911 10.4848C59.3822 10.65 59.4112 10.7996 59.4782 10.9335C59.5496 11.063 59.6613 11.1814 59.8131 11.2885C59.9649 11.3912 60.1592 11.485 60.3958 11.5698C60.6325 11.6547 60.9138 11.7306 61.2398 11.7976L62.3651 12.0387C63.1242 12.1995 63.7739 12.4116 64.3142 12.675C64.8545 12.9385 65.2966 13.2488 65.6405 13.6061C65.9843 13.9588 66.2366 14.3563 66.3973 14.7983C66.5626 15.2404 66.6474 15.7227 66.6519 16.2451C66.6474 17.1471 66.4219 17.9107 65.9754 18.5359C65.5288 19.161 64.8903 19.6366 64.0597 19.9626C63.2336 20.2885 62.24 20.4515 61.079 20.4515C59.8868 20.4515 58.8463 20.2752 57.9577 19.9224C57.0736 19.5696 56.3859 19.0271 55.8947 18.2947C55.408 17.558 55.1624 16.6158 55.1579 15.4681H58.6945C58.7168 15.8879 58.8218 16.2407 59.0093 16.5264C59.1969 16.8122 59.4603 17.0288 59.7997 17.1762C60.1435 17.3235 60.5521 17.3972 61.0255 17.3972C61.4229 17.3972 61.7556 17.3481 62.0235 17.2498C62.2914 17.1516 62.4946 17.0154 62.633 16.8413C62.7714 16.6671 62.8429 16.4684 62.8473 16.2451C62.8429 16.0352 62.7737 15.8522 62.6397 15.6959C62.5102 15.5351 62.2959 15.3922 61.9967 15.2672C61.6975 15.1377 61.2934 15.0171 60.7843 14.9055L59.4179 14.6108C58.2033 14.3473 57.2455 13.9075 56.5444 13.2913C55.8478 12.6706 55.5018 11.8244 55.5062 10.7527C55.5018 9.88192 55.734 9.12057 56.2028 8.46862C56.6762 7.81221 57.3303 7.30092 58.1654 6.93476C59.0049 6.56859 59.9672 6.38551 61.0523 6.38551C62.1597 6.38551 63.1175 6.57083 63.9257 6.94146C64.734 7.31208 65.3569 7.83454 65.7945 8.50881C66.2366 9.17862 66.4599 9.9623 66.4643 10.8598H62.9009ZM71.0886 9.57381V6.57306H83.0112V9.57381H78.8852V20.2908H75.2146V9.57381H71.0886ZM89.6398 20.2908H85.621L90.1489 6.57306H95.2394L99.7674 20.2908H95.7485L92.7478 10.3508H92.6406L89.6398 20.2908ZM88.8896 14.8787H96.4451V17.6651H88.8896V14.8787ZM108.208 6.57306V20.2908H104.484V6.57306H108.208ZM118.646 20.2908H113.368V6.57306H118.592C120.004 6.57306 121.223 6.84768 122.25 7.39693C123.281 7.94171 124.076 8.72762 124.634 9.75466C125.197 10.7772 125.478 12.003 125.478 13.4319C125.478 14.8608 125.199 16.0888 124.641 17.1159C124.083 18.1385 123.292 18.9244 122.27 19.4736C121.247 20.0184 120.039 20.2908 118.646 20.2908ZM117.092 17.1293H118.512C119.191 17.1293 119.769 17.0199 120.247 16.8011C120.729 16.5823 121.095 16.2049 121.345 15.6691C121.6 15.1332 121.727 14.3875 121.727 13.4319C121.727 12.4763 121.598 11.7306 121.339 11.1948C121.084 10.6589 120.709 10.2816 120.213 10.0628C119.722 9.84397 119.119 9.73456 118.405 9.73456H117.092V17.1293Z" fill="black"/>
<path d="M61.3662 31.8442C61.2853 31.5902 61.1764 31.3628 61.0397 31.1618C60.9057 30.9581 60.7453 30.7851 60.5583 30.6427C60.3713 30.4976 60.1578 30.3874 59.9178 30.312C59.6805 30.2367 59.4196 30.199 59.1349 30.199C58.6521 30.199 58.2167 30.3232 57.8288 30.5716C57.4409 30.8199 57.1339 31.1842 56.9078 31.6642C56.6845 32.1414 56.5729 32.7261 56.5729 33.4183C56.5729 34.1132 56.6859 34.7007 56.912 35.1807C57.138 35.6607 57.4478 36.0249 57.8413 36.2733C58.2349 36.5217 58.6828 36.6459 59.1852 36.6459C59.6512 36.6459 60.0573 36.551 60.4034 36.3612C60.7522 36.1715 61.0216 35.9035 61.2113 35.5575C61.4039 35.2086 61.5002 34.7983 61.5002 34.3267L61.8351 34.3895H59.3819V33.322H62.7519V34.2974C62.7519 35.0174 62.5984 35.6426 62.2914 36.1729C61.9872 36.7003 61.5658 37.1078 61.0271 37.3953C60.4913 37.6827 59.8773 37.8264 59.1852 37.8264C58.4093 37.8264 57.7283 37.6478 57.1422 37.2906C56.5589 36.9334 56.104 36.4268 55.7775 35.771C55.451 35.1123 55.2877 34.3309 55.2877 33.4266C55.2877 32.7429 55.3826 32.1289 55.5724 31.5846C55.7621 31.0404 56.0287 30.5785 56.372 30.199C56.718 29.8166 57.1241 29.525 57.5902 29.324C58.059 29.1203 58.5712 29.0184 59.1265 29.0184C59.5898 29.0184 60.021 29.0868 60.4201 29.2236C60.822 29.3603 61.1792 29.5543 61.4918 29.8055C61.8072 30.0566 62.0681 30.3553 62.2747 30.7013C62.4812 31.0446 62.6207 31.4256 62.6933 31.8442H61.3662ZM67.6672 29.1357V37.7092H66.4155V29.1357H67.6672ZM74.1816 37.839C73.5788 37.839 73.0527 37.7009 72.6034 37.4246C72.1541 37.1483 71.8052 36.7617 71.5568 36.2649C71.3084 35.7682 71.1842 35.1877 71.1842 34.5234C71.1842 33.8564 71.3084 33.2731 71.5568 32.7736C71.8052 32.274 72.1541 31.8861 72.6034 31.6098C73.0527 31.3335 73.5788 31.1953 74.1816 31.1953C74.7845 31.1953 75.3105 31.3335 75.7599 31.6098C76.2092 31.8861 76.5581 32.274 76.8064 32.7736C77.0548 33.2731 77.179 33.8564 77.179 34.5234C77.179 35.1877 77.0548 35.7682 76.8064 36.2649C76.5581 36.7617 76.2092 37.1483 75.7599 37.4246C75.3105 37.7009 74.7845 37.839 74.1816 37.839ZM74.1858 36.7882C74.5765 36.7882 74.9003 36.685 75.157 36.4785C75.4138 36.2719 75.6036 35.997 75.7264 35.6537C75.852 35.3105 75.9148 34.9323 75.9148 34.5193C75.9148 34.109 75.852 33.7322 75.7264 33.389C75.6036 33.0429 75.4138 32.7652 75.157 32.5559C74.9003 32.3466 74.5765 32.2419 74.1858 32.2419C73.7923 32.2419 73.4658 32.3466 73.2062 32.5559C72.9495 32.7652 72.7583 33.0429 72.6327 33.389C72.5099 33.7322 72.4485 34.109 72.4485 34.5193C72.4485 34.9323 72.5099 35.3105 72.6327 35.6537C72.7583 35.997 72.9495 36.2719 73.2062 36.4785C73.4658 36.685 73.7923 36.7882 74.1858 36.7882ZM80.7986 37.7092V29.1357H82.0503V32.3214H82.1257C82.1983 32.1875 82.3029 32.0326 82.4397 31.8568C82.5764 31.6809 82.7662 31.5274 83.009 31.3963C83.2518 31.2623 83.5728 31.1953 83.9719 31.1953C84.491 31.1953 84.9543 31.3265 85.3617 31.5888C85.7692 31.8512 86.0887 32.2293 86.3204 32.7233C86.5548 33.2173 86.672 33.8118 86.672 34.5067C86.672 35.2016 86.5562 35.7975 86.3246 36.2943C86.0929 36.7882 85.7748 37.1692 85.3701 37.4371C84.9654 37.7023 84.5035 37.8348 83.9844 37.8348C83.5937 37.8348 83.2741 37.7692 83.0258 37.6381C82.7802 37.5069 82.5876 37.3534 82.448 37.1776C82.3085 37.0017 82.2011 36.8455 82.1257 36.7087H82.021V37.7092H80.7986ZM82.0252 34.4941C82.0252 34.9463 82.0908 35.3426 82.222 35.6831C82.3532 36.0235 82.5429 36.2901 82.7913 36.4826C83.0397 36.6724 83.3439 36.7673 83.7039 36.7673C84.0779 36.7673 84.3905 36.6682 84.6417 36.4701C84.8929 36.2691 85.0826 35.997 85.211 35.6537C85.3422 35.3105 85.4078 34.9239 85.4078 34.4941C85.4078 34.0699 85.3436 33.689 85.2152 33.3513C85.0896 33.0136 84.8998 32.747 84.6459 32.5517C84.3947 32.3563 84.0807 32.2586 83.7039 32.2586C83.3411 32.2586 83.0341 32.3521 82.783 32.5391C82.5346 32.7261 82.3462 32.9871 82.2178 33.322C82.0894 33.6569 82.0252 34.0476 82.0252 34.4941ZM92.0708 37.8516C91.6634 37.8516 91.295 37.7762 90.9657 37.6255C90.6363 37.472 90.3754 37.2501 90.1828 36.9599C89.993 36.6696 89.8981 36.3138 89.8981 35.8924C89.8981 35.5296 89.9679 35.2309 90.1075 34.9965C90.247 34.7621 90.4354 34.5765 90.6726 34.4397C90.9098 34.303 91.175 34.1997 91.468 34.1299C91.7611 34.0602 92.0597 34.0071 92.3639 33.9708C92.749 33.9262 93.0616 33.8899 93.3016 33.862C93.5416 33.8313 93.7161 33.7825 93.8249 33.7155C93.9338 33.6485 93.9882 33.5397 93.9882 33.389V33.3596C93.9882 32.994 93.8849 32.7108 93.6784 32.5098C93.4747 32.3089 93.1704 32.2084 92.7658 32.2084C92.3443 32.2084 92.0122 32.3019 91.7694 32.4889C91.5294 32.6731 91.3634 32.8782 91.2713 33.1043L90.0949 32.8364C90.2344 32.4456 90.4382 32.1303 90.7061 31.8902C90.9768 31.6474 91.288 31.4716 91.6397 31.3628C91.9913 31.2511 92.3611 31.1953 92.749 31.1953C93.0058 31.1953 93.2779 31.226 93.5654 31.2874C93.8556 31.346 94.1263 31.4549 94.3775 31.614C94.6315 31.773 94.8394 32.0005 95.0013 32.2963C95.1631 32.5894 95.2441 32.9703 95.2441 33.4392V37.7092H94.0217V36.8301H93.9714C93.8905 36.992 93.7691 37.1511 93.6072 37.3073C93.4453 37.4636 93.2374 37.5934 92.9835 37.6967C92.7295 37.7999 92.4253 37.8516 92.0708 37.8516ZM92.343 36.8468C92.689 36.8468 92.9849 36.7785 93.2305 36.6417C93.4788 36.505 93.6672 36.3263 93.7956 36.1059C93.9268 35.8826 93.9924 35.644 93.9924 35.39V34.5611C93.9477 34.6058 93.8612 34.6476 93.7328 34.6867C93.6072 34.723 93.4635 34.7551 93.3016 34.783C93.1397 34.8081 92.9821 34.8318 92.8286 34.8542C92.6751 34.8737 92.5467 34.8904 92.4434 34.9044C92.2006 34.9351 91.9787 34.9867 91.7778 35.0593C91.5796 35.1319 91.4206 35.2365 91.3006 35.3733C91.1833 35.5072 91.1247 35.6858 91.1247 35.9091C91.1247 36.2189 91.2392 36.4533 91.468 36.6124C91.6969 36.7687 91.9885 36.8468 92.343 36.8468ZM100.285 29.1357V37.7092H99.0332V29.1357H100.285Z" fill="black"/>
<defs>
<linearGradient id="paint0_linear_5061_182" x1="20.6451" y1="-8.35581" x2="19.4663" y2="44.1037" gradientUnits="userSpaceOnUse">
<stop stop-color="#E46C0A"/>
<stop offset="1" stop-color="#F9D406"/>
</linearGradient>
</defs>
</svg>
