<?xml version="1.0" encoding="UTF-8"?>
<!DOCTYPE svg PUBLIC "-//W3C//DTD SVG 1.1//EN" "http://www.w3.org/Graphics/SVG/1.1/DTD/svg11.dtd">
<!-- Creator: CorelDRAW 2019 (64-Bit) -->
<svg xmlns="http://www.w3.org/2000/svg" xml:space="preserve" width="158.967mm" height="61.4555mm" version="1.1" style="shape-rendering:geometricPrecision; text-rendering:geometricPrecision; image-rendering:optimizeQuality; fill-rule:evenodd; clip-rule:evenodd"
viewBox="0 0 19321.86 7469.67"
 xmlns:xlink="http://www.w3.org/1999/xlink"
 xmlns:xodm="http://www.corel.com/coreldraw/odm/2003">
 <defs>
  <style type="text/css">
   <![CDATA[
    .fil3 {fill:#2B2D32}
    .fil4 {fill:#3A3C42}
    .fil2 {fill:#565759}
    .fil1 {fill:#AB0D0B}
    .fil0 {fill:#FDFDFD}
   ]]>
  </style>
 </defs>
 <g id="Layer_x0020_1">
  <metadata id="CorelCorpID_0Corel-Layer"/>
  <g id="_2454012244880">
   <polygon class="fil0" points="-0,7469.67 19321.86,7469.67 19321.86,0 -0,0 "/>
   <path class="fil1" d="M11030.05 3498.17c385.67,20.2 115.7,-196.27 424.23,-329.04 192.83,620.55 -539.93,1587.45 -1169.86,871.66 -565.64,-649.41 -231.4,-1642.29 -501.37,-1997.31 -154.27,-2.88 25.71,-28.86 -115.7,11.55 0,2.89 -25.71,5.77 -38.57,8.67l-179.97 121.22c-488.52,496.44 -269.97,132.76 -732.76,779.29 -128.56,170.29 -179.99,138.54 -475.66,522.42 -141.41,193.38 -295.67,406.96 -514.22,473.35 89.99,-317.49 295.69,-721.57 411.38,-1047.71 154.27,-456.03 282.81,-658.07 629.91,-877.43 -51.41,-115.46 25.72,-14.43 -51.41,-63.5l-77.13 -37.52c0,0 -12.86,-2.89 -25.72,-8.67 167.13,-135.65 102.85,-228.01 -25.71,-380.99 -141.41,54.84 -89.99,-2.88 -218.54,75.04 -25.72,17.32 -167.13,138.54 -192.83,158.75 -308.53,196.26 -1671.22,101.02 -938.46,704.25 0,5.77 25.71,17.32 25.71,25.97 -77.13,147.2 -51.41,112.56 -167.11,233.78l269.97 37.52c-77.13,669.62 -694.21,1402.74 -694.21,2236.87 424.24,28.86 514.22,-46.19 732.78,-259.77 179.97,-170.29 321.38,-331.92 475.65,-516.64 115.7,-121.23 848.46,-923.6 989.88,-952.47 0,637.86 295.67,1402.73 694.2,1659.6l321.38 184.73c115.7,51.95 77.13,46.19 179.99,43.29 12.85,0 38.57,-2.88 51.41,-5.77l77.13 -23.09c359.96,-92.35 179.99,-40.4 334.25,-144.31 231.4,-167.41 462.8,-103.9 1028.44,-724.45 488.51,-551.28 552.79,-2410.04 89.99,-2802.57 -347.1,77.94 -514.22,496.44 -501.37,828.36 25.71,415.63 -51.43,799.49 -115.7,1194.92z"/>
   <path class="fil1" d="M3676.68 450.27c-89.99,173.17 -192.83,279.97 -295.67,528.18 -102.85,228.02 -154.27,427.17 -244.26,637.87 -295.67,34.63 -334.24,-25.97 -565.64,-43.29 -321.39,-23.09 -347.1,161.63 -861.32,421.39 -115.7,57.73 -89.99,25.99 -179.97,109.68l-141.42 230.9 308.53 60.62c128.56,-5.77 167.13,-34.64 295.69,-51.95 642.77,-89.48 552.78,43.28 604.21,89.47 64.27,83.7 167.13,-106.79 -51.43,453.15 -141.41,369.44 -514.21,1385.41 -539.93,1674.03 308.53,-196.26 218.55,-178.94 488.52,-562.82 0,-8.65 12.85,-25.97 25.71,-37.52 -128.56,912.06 -347.1,785.07 -372.81,1370.98l218.54 150.09c12.86,8.67 25.71,23.09 38.57,31.75 411.37,-248.22 1054.16,-1073.69 1504.1,-1443.13 282.83,-245.34 308.53,-152.98 411.37,-545.51 -25.71,11.55 -128.55,77.94 -128.55,77.94 -51.43,25.97 -12.86,17.31 -64.29,31.75l-437.08 -129.88c-295.69,274.2 -257.12,230.9 -449.95,219.35 89.99,-248.22 128.56,-467.58 231.4,-736 282.83,-782.19 218.55,-637.87 977.02,-764.86l0 -109.68c295.67,-34.63 462.8,-72.15 822.76,-101.02l-154.27 -69.27c-12.86,-5.77 -38.57,-17.32 -51.43,-25.97l411.37 -14.43c-102.84,-37.52 -192.83,-51.96 -282.81,-72.16l-308.53 -98.14c-655.63,-176.06 -989.88,187.61 -488.52,-730.22 115.7,-204.93 269.97,-531.07 321.39,-787.95 -321.39,-20.21 -269.97,-20.21 -488.51,141.42 -257.12,193.38 -192.83,112.56 -552.79,95.26z"/>
   <path class="fil1" d="M16056.55 2337.89l282.83 101.02c0,204.93 12.86,268.42 38.57,456.03l-12.85 753.32c-12.86,326.14 -25.72,75.04 64.27,305.94 -334.25,89.47 -475.66,406.96 -1182.72,277.09 -629.91,-961.14 861.32,-2153.16 887.03,-2265.73l0 -86.59c0,-8.65 0,-31.75 -12.85,-46.18 -385.67,-14.44 -912.75,389.64 -1054.16,458.91 -668.49,340.58 -437.09,147.2 -809.9,776.41 -501.37,865.88 -424.23,2066.57 437.09,2075.23 707.05,5.77 1851.19,-704.25 2121.16,-1044.83l552.79 -1033.29c179.97,-580.14 115.7,-961.13 -141.42,-1316.14 -462.8,23.09 -977.02,303.06 -1169.86,588.81z"/>
   <path class="fil2" d="M14745.29 6791.41c141.42,-5.77 668.49,-49.07 771.33,-124.11 205.69,-152.98 64.29,54.83 141.42,-233.79 -604.22,-150.09 -1144.15,144.31 -1606.95,447.37 -218.54,141.43 -295.67,164.51 -552.78,31.75 12.85,-98.14 25.71,-92.36 115.7,-167.41l244.25 -230.9 -449.94 2.89c334.24,-216.47 154.27,-66.39 115.7,-176.07 -617.06,8.67 -488.51,184.73 -552.79,375.21 154.27,-63.5 218.55,-121.22 462.8,-80.8 -192.83,31.75 -269.97,170.29 -308.53,421.39 514.22,72.16 822.76,14.43 1234.13,-184.73 347.1,496.44 809.9,129.88 1208.42,147.2 424.23,17.32 784.19,277.09 1131.29,-132.76 -51.43,-438.72 -218.54,-190.5 -257.11,-444.49l12.85 -152.97c-681.34,161.63 -694.2,626.31 -1234.13,655.18 -218.54,14.43 -385.67,25.97 -475.66,-152.97z"/>
   <path class="fil3" d="M3239.59 5680.19l0 181.83c179.99,11.55 141.42,-72.15 449.95,-80.82 179.97,-2.88 398.51,2.89 591.35,5.77 -115.7,103.91 -218.54,161.63 -347.1,288.64 141.42,282.85 295.69,323.26 539.93,493.55 578.5,392.53 398.53,903.4 1504.1,92.36 269.97,-190.5 629.92,-349.24 758.48,-649.42 -115.7,-357.89 -424.23,-395.41 -874.18,-346.35 269.97,155.86 822.76,228.01 0,880.31 -192.83,155.86 -372.81,303.06 -565.64,427.17 -179.97,-187.61 25.71,-95.26 -462.8,-467.58 -539.93,-406.97 -617.06,-519.54 -179.97,-761.98 154.27,-89.47 141.41,-25.97 179.97,-170.29l-1594.09 106.79z"/>
   <path class="fil3" d="M9770.2 6805.84l282.83 -202.05c-89.99,839.91 617.06,461.81 822.76,268.42 128.55,-118.34 205.68,-187.61 321.38,-277.08 -38.57,320.37 -102.84,464.69 218.55,493.55 244.25,20.2 437.08,-89.47 539.93,-184.71 334.24,291.5 295.67,190.49 758.47,89.47 -89.99,-49.07 -218.54,-25.97 -347.1,-106.79l77.13 -470.47 -359.96 86.59c-12.85,54.84 -25.71,86.59 -38.57,135.66 -77.13,190.5 -192.83,334.81 -552.78,285.74l115.7 -507.99 -449.95 -11.55c-205.68,288.64 -231.4,536.86 -745.61,536.86l12.85 -447.37 51.43 -458.92c-514.22,-11.55 -77.13,-109.67 -668.49,727.34 -12.85,11.55 -25.71,28.87 -38.57,43.29z"/>
   <path class="fil1" d="M5219.35 5180.86c488.51,-57.72 527.07,-210.7 848.46,-510.87 -154.27,-253.99 -359.96,-536.84 -488.51,-707.14 -321.39,-5.76 -359.96,106.8 -604.22,288.64 -424.23,305.94 -154.27,482 244.26,929.38z"/>
   <path class="fil1" d="M12418.44 5241.48c231.4,-103.91 244.25,-31.75 449.94,-181.83 154.27,-118.34 167.13,-256.89 372.81,-314.61 -64.27,-103.91 -102.84,-161.63 -154.27,-268.42 -192.83,-389.65 -411.37,-603.23 -809.9,-288.62 -668.48,528.18 -282.81,464.68 141.42,1053.49z"/>
   <path class="fil1" d="M17522.09 4557.43c77.13,355.01 308.53,473.35 437.08,715.8 655.63,-317.49 192.83,92.36 861.32,-545.51 -102.84,-112.56 -38.57,-51.95 -102.84,-150.09l-154.27 -202.03c-102.85,-118.34 -179.99,-222.25 -295.69,-337.69 -295.67,69.27 -591.35,294.4 -745.61,519.52z"/>
   <path class="fil3" d="M7803.3 6699.05l141.42 -11.55c269.97,-54.84 -12.86,-109.68 115.7,-34.64l-77.13 401.2c719.91,95.24 385.67,-427.17 938.44,-510.87l38.57 490.66c295.69,95.26 359.96,25.99 604.22,-34.63l-257.12 -89.47 0 -487.79c-398.51,-51.95 -642.77,-14.43 -822.75,279.97 -64.29,-83.7 -12.86,11.55 -51.43,-115.44 -51.43,-121.23 0,-40.41 -64.27,-170.3l-282.83 -17.31 -282.83 300.17z"/>
   <path class="fil4" d="M6440.62 6828.93c141.42,380.99 758.48,303.05 1105.58,173.17 244.26,-92.35 141.41,-54.83 282.83,-225.13 -257.12,-8.65 -141.42,112.56 -449.95,152.98 -282.81,34.63 -424.23,8.65 -591.36,-101.02 12.86,-8.67 25.72,-31.76 38.57,-20.21l179.99 -57.72c154.27,-28.87 372.81,-17.32 539.93,-89.47 334.24,-144.31 115.7,-5.77 231.4,-216.47 -449.94,-124.11 -1182.72,-37.52 -1336.98,383.88z"/>
  </g>
 </g>
</svg>
